<svg width="168" height="30" viewBox="0 0 168 30" fill="none" xmlns="http://www.w3.org/2000/svg">
<path fill-rule="evenodd" clip-rule="evenodd" d="M61.0138 19.1028C64.3618 19.1028 66.0358 17.8608 66.0358 15.3768C66.0358 14.7528 65.8498 14.2008 65.4778 13.7208C65.1058 13.2408 64.4578 12.7368 63.5338 12.2088C63.2458 12.0408 62.8918 11.8458 62.4718 11.6238C62.0518 11.4018 61.7218 11.2248 61.4818 11.0928C61.2418 10.9608 60.9958 10.8078 60.7438 10.6338C60.4918 10.4598 60.3088 10.2918 60.1948 10.1298C60.0808 9.9678 60.0238 9.7968 60.0238 9.6168C60.0238 9.0408 60.3778 8.7528 61.0858 8.7528C61.5298 8.7528 62.0158 8.8638 62.5438 9.0858C63.0718 9.3078 63.5518 9.5298 63.9838 9.7518C64.4158 9.9738 64.7398 10.0848 64.9558 10.0848C65.0878 10.0848 65.2108 10.0578 65.3248 10.0038C65.4388 9.9498 65.5348 9.8598 65.6128 9.7338C65.6908 9.6078 65.7298 9.4548 65.7298 9.2748C65.7298 8.6148 65.2258 7.9908 64.2178 7.4028C63.2098 6.8148 61.9918 6.5208 60.5638 6.5208C58.9078 6.5208 57.6298 6.8388 56.7298 7.4748C55.8298 8.1108 55.3798 8.9328 55.3798 9.9408C55.3798 10.2528 55.4518 10.5918 55.5958 10.9578C55.7398 11.3238 55.9708 11.6928 56.2888 12.0648C56.6068 12.4368 56.9878 12.7488 57.4318 13.0008C57.7678 13.1928 58.1158 13.3848 58.4758 13.5768C58.8358 13.7688 59.1268 13.9248 59.3488 14.0448L60.0148 14.4048C60.2368 14.5248 60.4108 14.6238 60.5368 14.7018C60.6628 14.7798 60.7768 14.8638 60.8788 14.9538C60.9808 15.0438 61.0528 15.1338 61.0948 15.2238C61.1368 15.3138 61.1578 15.4128 61.1578 15.5208C61.1578 15.8928 60.8878 16.0788 60.3478 16.0788C59.7598 16.0788 58.9858 15.9198 58.0258 15.6018C57.0658 15.2838 56.4598 15.1248 56.2078 15.1248C55.8718 15.1248 55.6168 15.2178 55.4428 15.4038C55.2688 15.5898 55.1818 15.8148 55.1818 16.0788C55.1818 16.3188 55.2718 16.5768 55.4518 16.8528C55.6318 17.1288 55.8988 17.3988 56.2528 17.6628C56.6068 17.9268 57.0148 18.1668 57.4768 18.3828C57.9388 18.5988 58.4788 18.7728 59.0968 18.9048C59.7148 19.0368 60.3538 19.1028 61.0138 19.1028ZM80.2918 18.9768C80.5918 18.9768 80.8408 18.9558 81.0388 18.9138C81.2368 18.8718 81.4168 18.7878 81.5788 18.6618C81.7408 18.5358 81.8668 18.3768 81.9568 18.1848C82.0468 17.9928 82.1218 17.7288 82.1818 17.3928C82.2418 17.0568 82.2808 16.6788 82.2988 16.2588C82.3168 15.8388 82.3258 15.3108 82.3258 14.6748C82.3258 13.1508 82.1398 12.0648 81.7678 11.4168C81.3958 10.7688 80.7838 10.4448 79.9318 10.4448C78.5878 10.4448 77.4538 10.7808 76.5298 11.4528L76.3498 11.5968C75.9538 10.8288 75.3118 10.4448 74.4238 10.4448C73.8358 10.4448 73.3228 10.5108 72.8848 10.6428C72.4468 10.7748 71.9998 11.0088 71.5438 11.3448C71.2798 10.7088 70.6558 10.3908 69.6718 10.3908C69.1198 10.3908 68.6788 10.5768 68.3488 10.9488C68.0188 11.3208 67.8538 11.8128 67.8538 12.4248V16.8528C67.8538 17.6088 67.9828 18.1518 68.2408 18.4818C68.4988 18.8118 68.9818 18.9768 69.6898 18.9768C70.4458 18.9768 70.9738 18.8358 71.2738 18.5538C71.5738 18.2718 71.7238 17.7708 71.7238 17.0508V14.5488C71.7238 14.1528 71.7928 13.8318 71.9308 13.5858C72.0688 13.3398 72.2458 13.2168 72.4618 13.2168C73.0018 13.2168 73.2718 13.5528 73.2718 14.2248V17.4828C73.2718 17.8068 73.3258 18.0768 73.4338 18.2928C73.5418 18.5088 73.7248 18.6768 73.9828 18.7968C74.2408 18.9168 74.5798 18.9768 74.9998 18.9768C75.2758 18.9768 75.5038 18.9558 75.6838 18.9138C75.8638 18.8718 76.0258 18.7878 76.1698 18.6618C76.3138 18.5358 76.4278 18.3768 76.5118 18.1848C76.5958 17.9928 76.6678 17.7288 76.7278 17.3928C76.7878 17.0568 76.8268 16.6788 76.8448 16.2588C76.8628 15.8388 76.8718 15.3108 76.8718 14.6748C76.8718 14.2548 76.9318 13.9068 77.0518 13.6308C77.1718 13.3548 77.3518 13.2168 77.5918 13.2168C78.1318 13.2168 78.4018 13.5528 78.4018 14.2248V17.4828C78.4018 17.8068 78.4618 18.0768 78.5818 18.2928C78.7018 18.5088 78.9028 18.6768 79.1848 18.7968C79.4668 18.9168 79.8358 18.9768 80.2918 18.9768ZM87.3928 8.9508C87.0628 9.1548 86.5738 9.2568 85.9258 9.2568C85.3618 9.2568 84.8938 9.1488 84.5218 8.9328C84.1498 8.7168 83.9638 8.3688 83.9638 7.8888C83.9638 7.4928 84.1348 7.1658 84.4768 6.9078C84.8188 6.6498 85.3018 6.5208 85.9258 6.5208C87.2338 6.5208 87.8878 6.9768 87.8878 7.8888C87.8878 8.3928 87.7228 8.7468 87.3928 8.9508ZM85.8358 18.9768C86.5918 18.9768 87.1198 18.8358 87.4198 18.5538C87.7198 18.2718 87.8698 17.7708 87.8698 17.0508V12.3708C87.8698 11.6148 87.6898 11.0958 87.3298 10.8138C86.9698 10.5318 86.4658 10.3908 85.8178 10.3908C85.2658 10.3908 84.8248 10.5768 84.4948 10.9488C84.1648 11.3208 83.9998 11.8128 83.9998 12.4248V16.8528C83.9998 17.6088 84.1288 18.1518 84.3868 18.4818C84.6448 18.8118 85.1278 18.9768 85.8358 18.9768ZM92.9818 18.3468C92.6578 18.7668 92.1598 18.9768 91.4878 18.9768C90.8158 18.9768 90.3238 18.7878 90.0118 18.4098C89.6998 18.0318 89.5438 17.3628 89.5438 16.4028L89.5078 8.8068C89.5078 8.4948 89.5408 8.2188 89.6068 7.9788C89.6728 7.7388 89.7628 7.5348 89.8768 7.3668C89.9908 7.1988 90.1318 7.0608 90.2998 6.9528C90.4678 6.8448 90.6508 6.7668 90.8488 6.7188C91.0468 6.6708 91.2598 6.6468 91.4878 6.6468C92.1478 6.6468 92.6428 6.7788 92.9728 7.0428C93.3028 7.3068 93.4678 7.8408 93.4678 8.6448V16.2588C93.4678 17.2308 93.3058 17.9268 92.9818 18.3468ZM100.074 19.0848C100.722 19.0848 101.328 18.9768 101.892 18.7608C102.456 18.5448 102.909 18.2838 103.251 17.9778C103.593 17.6718 103.86 17.3658 104.052 17.0598C104.244 16.7538 104.34 16.4928 104.34 16.2768C104.34 16.0968 104.283 15.9468 104.169 15.8268C104.055 15.7068 103.896 15.6468 103.692 15.6468C103.572 15.6468 103.377 15.7128 103.107 15.8448C102.837 15.9768 102.588 16.0728 102.36 16.1328C101.82 16.2648 101.292 16.3308 100.776 16.3308C100.296 16.3308 99.8998 16.2198 99.5878 15.9978C99.2758 15.7758 99.0598 15.4728 98.9398 15.0888L101.478 15.0708C101.778 15.0708 102.06 15.0438 102.324 14.9898C102.588 14.9358 102.816 14.8578 103.008 14.7558C103.2 14.6538 103.371 14.5398 103.521 14.4138C103.671 14.2878 103.791 14.1498 103.881 13.9998C103.971 13.8498 104.037 13.6968 104.079 13.5408C104.121 13.3848 104.142 13.2228 104.142 13.0548C104.142 12.1908 103.815 11.5098 103.161 11.0118C102.507 10.5138 101.478 10.2648 100.074 10.2648C98.5858 10.2648 97.3708 10.6758 96.4288 11.4978C95.4868 12.3198 95.0158 13.4388 95.0158 14.8548C95.0158 16.1628 95.4928 17.1948 96.4468 17.9508C97.4008 18.7068 98.6098 19.0848 100.074 19.0848ZM99.0838 12.8478C98.9638 13.1778 98.8858 13.5408 98.8498 13.9368C99.6778 13.9248 100.128 13.9188 100.2 13.9188C100.38 13.9188 100.512 13.8108 100.596 13.5948C100.656 13.4388 100.686 13.2228 100.686 12.9468C100.686 12.1908 100.458 11.8128 100.002 11.8128C99.8338 11.8128 99.6688 11.9028 99.5068 12.0828C99.3448 12.2628 99.2038 12.5178 99.0838 12.8478ZM111.612 19.1028C114.96 19.1028 116.634 17.8608 116.634 15.3768C116.634 14.7528 116.448 14.2008 116.076 13.7208C115.704 13.2408 115.056 12.7368 114.132 12.2088C113.844 12.0408 113.49 11.8458 113.07 11.6238C112.65 11.4018 112.32 11.2248 112.08 11.0928C111.84 10.9608 111.594 10.8078 111.342 10.6338C111.09 10.4598 110.907 10.2918 110.793 10.1298C110.679 9.9678 110.622 9.7968 110.622 9.6168C110.622 9.0408 110.976 8.7528 111.684 8.7528C112.128 8.7528 112.614 8.8638 113.142 9.0858C113.67 9.3078 114.15 9.5298 114.582 9.7518C115.014 9.9738 115.338 10.0848 115.554 10.0848C115.686 10.0848 115.809 10.0578 115.923 10.0038C116.037 9.9498 116.133 9.8598 116.211 9.7338C116.289 9.6078 116.328 9.4548 116.328 9.2748C116.328 8.6148 115.824 7.9908 114.816 7.4028C113.808 6.8148 112.59 6.5208 111.162 6.5208C109.506 6.5208 108.228 6.8388 107.328 7.4748C106.428 8.1108 105.978 8.9328 105.978 9.9408C105.978 10.2528 106.05 10.5918 106.194 10.9578C106.338 11.3238 106.569 11.6928 106.887 12.0648C107.205 12.4368 107.586 12.7488 108.03 13.0008C108.366 13.1928 108.714 13.3848 109.074 13.5768C109.434 13.7688 109.725 13.9248 109.947 14.0448L110.613 14.4048C110.835 14.5248 111.009 14.6238 111.135 14.7018C111.261 14.7798 111.375 14.8638 111.477 14.9538C111.579 15.0438 111.651 15.1338 111.693 15.2238C111.735 15.3138 111.756 15.4128 111.756 15.5208C111.756 15.8928 111.486 16.0788 110.946 16.0788C110.358 16.0788 109.584 15.9198 108.624 15.6018C107.664 15.2838 107.058 15.1248 106.806 15.1248C106.47 15.1248 106.215 15.2178 106.041 15.4038C105.867 15.5898 105.78 15.8148 105.78 16.0788C105.78 16.3188 105.87 16.5768 106.05 16.8528C106.23 17.1288 106.497 17.3988 106.851 17.6628C107.205 17.9268 107.613 18.1668 108.075 18.3828C108.537 18.5988 109.077 18.7728 109.695 18.9048C110.313 19.0368 110.952 19.1028 111.612 19.1028ZM124.824 18.8868C124.356 19.0308 123.864 19.1028 123.348 19.1028C121.86 19.1028 120.636 18.7038 119.676 17.9058C118.716 17.1078 118.236 16.0128 118.236 14.6208C118.236 13.7328 118.455 12.9558 118.893 12.2898C119.331 11.6238 119.934 11.1198 120.702 10.7778C121.47 10.4358 122.352 10.2648 123.348 10.2648C124.296 10.2648 125.079 10.3758 125.697 10.5978C126.315 10.8198 126.756 11.1168 127.02 11.4888C127.284 11.8608 127.416 12.3048 127.416 12.8208C127.416 13.0488 127.371 13.2828 127.281 13.5228C127.191 13.7628 127.053 14.0028 126.867 14.2428C126.681 14.4828 126.408 14.6778 126.048 14.8278C125.688 14.9778 125.268 15.0528 124.788 15.0528C124.572 15.0528 124.395 15.0408 124.257 15.0168C124.119 14.9928 123.975 14.9418 123.825 14.8638C123.675 14.7858 123.564 14.6568 123.492 14.4768C123.42 14.2968 123.384 14.0688 123.384 13.7928C123.384 13.5528 123.429 13.2618 123.519 12.9198C123.609 12.5778 123.654 12.3528 123.654 12.2448C123.654 11.9688 123.498 11.8308 123.186 11.8308C122.958 11.8308 122.754 11.9568 122.574 12.2088C122.394 12.4608 122.256 12.7758 122.16 13.1538C122.064 13.5318 122.016 13.9248 122.016 14.3328C122.016 14.9328 122.199 15.4188 122.565 15.7908C122.931 16.1628 123.426 16.3488 124.05 16.3488C124.662 16.3488 125.19 16.2768 125.634 16.1328C125.814 16.0848 126.033 15.9948 126.291 15.8628C126.549 15.7308 126.732 15.6648 126.84 15.6648C127.008 15.6648 127.146 15.6948 127.254 15.7548C127.362 15.8148 127.437 15.8868 127.479 15.9708C127.521 16.0548 127.542 16.1448 127.542 16.2408C127.542 16.4088 127.485 16.6128 127.371 16.8528C127.257 17.0928 127.08 17.3448 126.84 17.6088C126.6 17.8728 126.321 18.1158 126.003 18.3378C125.685 18.5598 125.292 18.7428 124.824 18.8868ZM136.65 18.9768C136.902 18.9768 137.118 18.9588 137.298 18.9228C137.478 18.8868 137.643 18.8298 137.793 18.7518C137.943 18.6738 138.066 18.5628 138.162 18.4188C138.258 18.2748 138.342 18.1008 138.414 17.8968C138.486 17.6928 138.54 17.4318 138.576 17.1138C138.612 16.7958 138.639 16.4448 138.657 16.0608C138.675 15.6768 138.684 15.2208 138.684 14.6928C138.684 13.6608 138.6 12.8268 138.432 12.1908C138.264 11.5548 138.006 11.0898 137.658 10.7958C137.31 10.5018 136.848 10.3548 136.272 10.3548C135 10.3548 133.92 10.6248 133.032 11.1648V8.5548C133.032 7.7508 132.87 7.2168 132.546 6.9528C132.222 6.6888 131.742 6.5568 131.106 6.5568C130.506 6.5568 130.026 6.7308 129.666 7.0788C129.306 7.4268 129.126 7.9728 129.126 8.7168L129.162 16.3848C129.162 17.3448 129.318 18.0138 129.63 18.3918C129.942 18.7698 130.434 18.9588 131.106 18.9588C131.754 18.9588 132.237 18.7518 132.555 18.3378C132.873 17.9238 133.032 17.2248 133.032 16.2408V14.2608C133.032 14.1288 133.041 14.0088 133.059 13.9008C133.077 13.7928 133.107 13.6998 133.149 13.6218C133.191 13.5438 133.239 13.4718 133.293 13.4058C133.347 13.3398 133.407 13.2888 133.473 13.2528C133.539 13.2168 133.611 13.1868 133.689 13.1628C133.767 13.1388 133.854 13.1268 133.95 13.1268C134.478 13.1268 134.742 13.4688 134.742 14.1528L134.76 17.4828C134.76 17.9868 134.907 18.3618 135.201 18.6078C135.495 18.8538 135.978 18.9768 136.65 18.9768ZM148.773 17.9328C147.831 18.7128 146.646 19.1028 145.218 19.1028C144.282 19.1028 143.439 18.9348 142.689 18.5988C141.939 18.2628 141.339 17.7588 140.889 17.0868C140.439 16.4148 140.214 15.6288 140.214 14.7288C140.214 13.3608 140.682 12.2748 141.618 11.4708C142.554 10.6668 143.754 10.2648 145.218 10.2648C146.682 10.2648 147.876 10.6668 148.8 11.4708C149.724 12.2748 150.186 13.3608 150.186 14.7288C150.186 16.0848 149.715 17.1528 148.773 17.9328ZM145.218 17.0148C144.906 17.0148 144.666 16.7838 144.498 16.3218C144.33 15.8598 144.246 15.3228 144.246 14.7108C144.246 14.3148 144.282 13.9428 144.354 13.5948C144.426 13.2468 144.54 12.9528 144.696 12.7128C144.852 12.4728 145.032 12.3528 145.236 12.3528C145.536 12.3528 145.764 12.5898 145.92 13.0638C146.076 13.5378 146.154 14.0868 146.154 14.7108C146.154 15.3348 146.076 15.8748 145.92 16.3308C145.764 16.7868 145.53 17.0148 145.218 17.0148ZM160.131 17.9328C159.189 18.7128 158.004 19.1028 156.576 19.1028C155.64 19.1028 154.797 18.9348 154.047 18.5988C153.297 18.2628 152.697 17.7588 152.247 17.0868C151.797 16.4148 151.572 15.6288 151.572 14.7288C151.572 13.3608 152.04 12.2748 152.976 11.4708C153.912 10.6668 155.112 10.2648 156.576 10.2648C158.04 10.2648 159.234 10.6668 160.158 11.4708C161.082 12.2748 161.544 13.3608 161.544 14.7288C161.544 16.0848 161.073 17.1528 160.131 17.9328ZM156.576 17.0148C156.264 17.0148 156.024 16.7838 155.856 16.3218C155.688 15.8598 155.604 15.3228 155.604 14.7108C155.604 14.3148 155.64 13.9428 155.712 13.5948C155.784 13.2468 155.898 12.9528 156.054 12.7128C156.21 12.4728 156.39 12.3528 156.594 12.3528C156.894 12.3528 157.122 12.5898 157.278 13.0638C157.434 13.5378 157.512 14.0868 157.512 14.7108C157.512 15.3348 157.434 15.8748 157.278 16.3308C157.122 16.7868 156.888 17.0148 156.576 17.0148ZM166.53 18.3468C166.206 18.7668 165.708 18.9768 165.036 18.9768C164.364 18.9768 163.872 18.7878 163.56 18.4098C163.248 18.0318 163.092 17.3628 163.092 16.4028L163.056 8.8068C163.056 8.4948 163.089 8.2188 163.155 7.9788C163.221 7.7388 163.311 7.5348 163.425 7.3668C163.539 7.1988 163.68 7.0608 163.848 6.9528C164.016 6.8448 164.199 6.7668 164.397 6.7188C164.595 6.6708 164.808 6.6468 165.036 6.6468C165.696 6.6468 166.191 6.7788 166.521 7.0428C166.851 7.3068 167.016 7.8408 167.016 8.6448V16.2588C167.016 17.2308 166.854 17.9268 166.53 18.3468Z" fill="white"/>
<path d="M8.33579 11.848C10.5046 11.848 12.2686 9.1904 12.2686 5.9236C12.2686 2.6576 10.5046 0 8.33579 0C6.16699 0 4.40259 2.6576 4.40259 5.9236C4.40259 9.1904 6.16739 11.848 8.33579 11.848Z" fill="white"/>
<path d="M27.0502 11.848C29.219 11.848 30.9834 9.1904 30.9834 5.9236C30.9834 2.6576 29.219 0 27.0502 0C24.8818 0 23.1178 2.6576 23.1178 5.9236C23.1178 9.1904 24.8822 11.848 27.0502 11.848Z" fill="white"/>
<path d="M35.1256 16.5888C34.8764 16.3756 34.533 16.3512 34.2695 16.5327C30.0388 19.4234 24.2994 21.4339 18.1076 22.1941C11.9172 22.9542 5.86149 22.392 1.0569 20.6111C0.757077 20.5 0.428857 20.6056 0.24013 20.8726C0.050353 21.1401 0.0410122 21.512 0.216657 21.7983C2.82258 26.0529 10.4377 28.3121 18.734 27.2934C27.0337 26.2743 33.8763 22.2388 35.3734 17.4808C35.4738 17.161 35.374 16.8021 35.1256 16.5888Z" fill="white"/>
</svg>
