<svg width="44" height="36" viewBox="0 0 44 36" fill="none" xmlns="http://www.w3.org/2000/svg">
<path d="M10.003 14.2176C12.6055 14.2176 14.7223 11.0285 14.7223 7.10832C14.7223 3.18912 12.6055 0 10.003 0C7.40039 0 5.28311 3.18912 5.28311 7.10832C5.28311 11.0285 7.40087 14.2176 10.003 14.2176Z" fill="#C271FF"/>
<path d="M32.4602 14.2176C35.0628 14.2176 37.1801 11.0285 37.1801 7.10832C37.1801 3.18912 35.0628 0 32.4602 0C29.8581 0 27.7413 3.18912 27.7413 7.10832C27.7413 11.0285 29.8586 14.2176 32.4602 14.2176Z" fill="#C271FF"/>
<path d="M42.1507 19.9065C41.8517 19.6506 41.4396 19.6214 41.1233 19.8392C36.0466 23.3081 29.1592 25.7206 21.7291 26.6329C14.3007 27.545 7.03378 26.8704 1.26828 24.7333C0.908493 24.6 0.514629 24.7267 0.288156 25.047C0.0604237 25.3681 0.0492146 25.8144 0.259988 26.158C3.38709 31.2634 12.5252 33.9744 22.4808 32.752C32.4405 31.5291 40.6515 26.6865 42.4481 20.977C42.5686 20.5932 42.4488 20.1625 42.1507 19.9065Z" fill="#C271FF"/>
</svg>
